<svg xmlns="http://www.w3.org/2000/svg" viewBox="0 0 128 128" style="enable-background:new 0 0 128 128" xml:space="preserve"><path style="fill:#e1defd" d="m120.19 27.582-31.527 85.8-1.352 3.706-1.384 3.77-.207 1.336-1.59 1.145V32.258H19.533l.239-1.59.238-1.591 2.196-14.427 16.638 2.529 1.622.239.557-1.511L46.654.573z"/><path style="fill:#675bf5" d="M45.699 0 39.4 17.131l-18.531-2.815-2.465 16.241H5.774V128h81.537v-4.183l.159-1.05 34.756-94.66L45.699 0zM84.13 124.819H8.955V33.738H84.13v91.081zM21.633 30.556l1.909-12.614 14.745 2.243 1.623.239 1.591.255 56.945 8.653-11.135 73.266V30.556H21.633zm80.439-3.897-59.459-9.035 4.979-13.536L118.154 30l-28.298 77.035 12.216-80.376z"/></svg>